<?xml version="1.0" encoding="UTF-8" standalone="no"?>
<svg
   width="832"
   height="832"
   viewBox="0 0 832 832"
   version="1.1"
   xml:space="preserve"
   id="SVGRoot"
   inkscape:version="1.4.2 (ebf0e940d0, 2025-05-08)"
   sodipodi:docname="back.svg"
   xmlns:inkscape="http://www.inkscape.org/namespaces/inkscape"
   xmlns:sodipodi="http://sodipodi.sourceforge.net/DTD/sodipodi-0.dtd"
   xmlns="http://www.w3.org/2000/svg"
   xmlns:svg="http://www.w3.org/2000/svg"><defs
   id="defs126" />
<sodipodi:namedview
   pagecolor="#a9a9a9"
   bordercolor="#292929"
   borderopacity="1"
   inkscape:showpageshadow="2"
   inkscape:pageopacity="0.0"
   inkscape:pagecheckerboard="0"
   inkscape:deskcolor="#232323"
   id="namedview1"
   inkscape:zoom="1.0533333"
   inkscape:cx="420.09495"
   inkscape:cy="419.14558"
   inkscape:window-width="1915"
   inkscape:window-height="1206"
   inkscape:window-x="0"
   inkscape:window-y="680"
   inkscape:window-maximized="0"
   inkscape:current-layer="SVGRoot" />
<style
   type="text/css"
   id="style1">
g.prefab path {
  vector-effect:non-scaling-stroke;
  -inkscape-stroke:hairline;
  fill: none;
  fill-opacity: 1;
  stroke-opacity: 1;
  stroke: #00349c;
}
</style>

<circle
   style="fill:#c8c800;fill-opacity:1;stroke:#000000;stroke-width:20;stroke-linecap:round;stroke-linejoin:round;stroke-dasharray:none"
   id="path126"
   cx="416.3291"
   cy="416.3291"
   r="406.3291" /><path
   id="path2"
   style="baseline-shift:baseline;display:inline;overflow:visible;opacity:1;fill:#ffffff;fill-opacity:1;fill-rule:evenodd;stroke:#000000;stroke-width:20;stroke-linecap:round;stroke-linejoin:round;stroke-dasharray:none;stroke-opacity:1;enable-background:accumulate;stop-color:#000000;stop-opacity:1"
   sodipodi:type="inkscape:offset"
   inkscape:radius="23.852943"
   inkscape:original="M 293.57812 167.89062 A 10 10 0 0 0 286.35938 170.43555 L 174.81055 270.59375 A 10.001 10.001 0 0 0 174.69531 270.84961 A 10 10 0 0 0 171.92969 276.97461 A 10.001 10.001 0 0 0 171.50977 277.98633 A 10 10 0 0 0 171.49023 278.03516 A 10 10 0 0 0 174.59961 285.17969 A 10.001 10.001 0 0 0 174.67383 285.35156 L 285.75 388.83203 A 10 10 0 0 0 299.88281 388.33203 A 10 10 0 0 0 299.38281 374.19922 L 206.89453 288.03516 L 537.50391 288.03516 C 590.11584 288.03516 628.96055 303.0073 654.81445 327.58789 C 680.66836 352.16848 694.11719 386.78638 694.11719 428.50977 C 694.11719 470.30944 681.0062 507.12355 655.23242 533.60156 C 629.45865 560.07957 590.69034 576.78125 537.02344 576.78125 L 180.54102 576.78125 A 10 10 0 0 0 170.54102 586.78125 A 10 10 0 0 0 180.54102 596.78125 L 537.02344 596.78125 C 594.90125 596.78125 639.67715 578.25667 669.56445 547.55273 C 699.45176 516.8488 714.11719 474.52655 714.11719 428.50977 C 714.11719 382.41669 698.7852 341.79639 668.5957 313.09375 C 638.40621 284.39111 593.94624 268.03516 537.50391 268.03516 L 207.59766 268.03516 L 299.72266 185.31836 A 10 10 0 0 0 300.48242 171.19531 A 10 10 0 0 0 293.57812 167.89062 z "
   d="m 294.85742,144.07227 c -8.84926,-0.47537 -17.8397,2.6944 -24.43359,8.61523 L 158.875,252.8457 a 23.855329,23.855329 0 0 0 -3.83594,5.17188 l 2.47852,-3.71875 c -5.36623,5.56947 -8.7322,13.02791 -9.36133,20.73633 l 0.27539,-1.01368 a 23.855329,23.855329 0 0 0 -0.79297,4.25977 c 0.093,9.03121 3.97965,17.96263 10.52539,24.18555 l -0.30664,-0.44336 a 23.855329,23.855329 0 0 0 0.55664,0.78125 l 111.07617,103.48047 c 12.96889,12.08176 35.7611,11.27469 47.84375,-1.69336 a 23.855329,23.855329 0 0 0 0.002,0 c 12.08176,-12.96889 11.27469,-35.7611 -1.69336,-47.84375 a 23.855329,23.855329 0 0 0 0,-0.002 l -48.15039,-44.85742 h 270.01172 c 48.0866,0 80.16238,13.29381 100.875,32.98633 20.7426,19.72102 31.88476,47.0371 31.88476,83.63477 0,36.81182 -11.23716,66.99656 -32.12305,88.45312 -20.93172,21.50366 -52.39913,35.96484 -101.11718,35.96484 H 180.54102 c -17.72536,0 -33.85352,16.12816 -33.85352,33.85352 0,17.72536 16.12816,33.85352 33.85352,33.85352 h 356.48242 c 62.96745,0 114.78467,-20.64303 149.63281,-56.44336 34.80867,-35.75977 51.31445,-84.59695 51.31445,-135.68164 0,-51.38257 -17.52817,-99.03589 -52.93945,-132.70313 -35.38539,-33.64264 -86.47692,-51.625 -147.52734,-51.625 H 269.86719 l 45.78906,-41.11328 0.002,-0.002 c 13.18899,-11.84243 14.41469,-34.61765 2.57227,-47.80664 l -0.002,-0.002 c -5.92078,-6.59307 -14.51863,-10.70907 -23.36719,-11.18554 z M 149.32031,269.24219 a 23.855329,23.855329 0 0 0 -0.0254,0.13867 c -0.0868,0.23039 -0.20141,0.44941 -0.2832,0.68164 z" /></svg>
