<?xml version="1.0" encoding="UTF-8" standalone="no"?>
<svg
   width="1765.0298"
   height="832.6582"
   viewBox="0 0 1765.0298 832.6582"
   version="1.1"
   xml:space="preserve"
   id="SVGRoot"
   inkscape:version="1.4.2 (ebf0e940d0, 2025-05-08)"
   sodipodi:docname="logo-cinevr.svg"
   xmlns:inkscape="http://www.inkscape.org/namespaces/inkscape"
   xmlns:sodipodi="http://sodipodi.sourceforge.net/DTD/sodipodi-0.dtd"
   xmlns="http://www.w3.org/2000/svg"
   xmlns:svg="http://www.w3.org/2000/svg"><defs
   id="defs126" />
<sodipodi:namedview
   pagecolor="#a9a9a9"
   bordercolor="#292929"
   borderopacity="1"
   inkscape:showpageshadow="2"
   inkscape:pageopacity="0.0"
   inkscape:pagecheckerboard="0"
   inkscape:deskcolor="#232323"
   id="namedview1"
   inkscape:zoom="0.74481912"
   inkscape:cx="872.0238"
   inkscape:cy="420.90756"
   inkscape:window-width="1915"
   inkscape:window-height="1194"
   inkscape:window-x="0"
   inkscape:window-y="710"
   inkscape:window-maximized="0"
   inkscape:current-layer="SVGRoot" />
<style
   type="text/css"
   id="style1">
g.prefab path {
  vector-effect:non-scaling-stroke;
  -inkscape-stroke:hairline;
  fill: none;
  fill-opacity: 1;
  stroke-opacity: 1;
  stroke: #00349c;
}
</style>

<path
   id="path126"
   style="fill:#c8c800;stroke:#000000;stroke-width:20;stroke-linecap:round;stroke-linejoin:round"
   d="m 416.3291,822.6582 c -107.76518,0 -211.11657,-42.80955 -287.31806,-119.01104 C 52.80955,627.44567 10,524.09428 10,416.3291 10,191.91973 191.91973,10 416.3291,10 h 932.3716 c 107.7652,0 211.1166,42.80955 287.3181,119.01104 76.2014,76.20149 119.011,179.55288 119.011,287.31806 0,107.76518 -42.8096,211.11657 -119.011,287.31806 -76.2015,76.20149 -179.5529,119.01104 -287.3181,119.01104 z"
   sodipodi:nodetypes="cssccssscc" /><g
   id="g3"
   transform="translate(48.642955,-0.18657218)"><path
     style="fill:none;fill-rule:evenodd;stroke:#000000;stroke-width:120;stroke-linecap:round;stroke-linejoin:round;stroke-dasharray:none;stroke-opacity:1"
     d="M 884.36171,213.47465 1015.0115,626.99787 1143.9019,210.78944"
     id="path1-7"
     sodipodi:nodetypes="ccc" /><path
     style="fill:none;fill-rule:evenodd;stroke:#ffffff;stroke-width:80;stroke-linecap:round;stroke-linejoin:round;stroke-dasharray:none;stroke-opacity:1"
     d="M 884.36171,213.47465 1015.0115,626.99787 1143.9019,210.78944"
     id="path1"
     sodipodi:nodetypes="ccc" /></g><g
   id="g2"
   transform="translate(-34.135956,-2.2004872)"><path
     style="fill:none;fill-rule:evenodd;stroke:#000000;stroke-width:120;stroke-linecap:round;stroke-linejoin:round;stroke-dasharray:none;stroke-opacity:1"
     d="M 1377.5157,632.3683 V 212.13205 h 85.9269 c 114.902,0 121.5229,82.34829 121.5229,107.63322 0,25.28493 -5.1862,93.36974 -78.2282,112.9413 l 73.5121,199.66173"
     id="path2-5-9"
     sodipodi:nodetypes="ccszcc" /><path
     style="fill:none;fill-rule:evenodd;stroke:#ffffff;stroke-width:80;stroke-linecap:round;stroke-linejoin:round;stroke-dasharray:none;stroke-opacity:1"
     d="M 1377.5157,632.3683 V 212.13205 h 85.9269 c 114.902,0 121.5229,82.34829 121.5229,107.63322 0,25.28493 -5.1862,93.36974 -78.2282,112.9413 l 73.5121,199.66173"
     id="path2-5"
     sodipodi:nodetypes="ccszcc" /></g><g
   id="g4"
   transform="rotate(90,425.6228,371.91848)"><path
     style="fill:none;fill-rule:evenodd;stroke:#000000;stroke-width:60;stroke-linecap:round;stroke-linejoin:round;stroke-dasharray:none;stroke-opacity:1"
     d="M 520.93185,316.53105 H 420.23625"
     id="path3-3"
     sodipodi:nodetypes="cc" /><path
     style="fill:none;fill-rule:evenodd;stroke:#ffffff;stroke-width:40;stroke-linecap:round;stroke-linejoin:round;stroke-dasharray:none;stroke-opacity:1"
     d="M 520.93185,316.53105 H 420.23625"
     id="path3"
     sodipodi:nodetypes="cc" /></g><g
   id="g5"
   transform="translate(-145.74729,-108.46807)"><path
     id="path3-2-3"
     style="fill:none;fill-rule:evenodd;stroke:#000000;stroke-width:60;stroke-linecap:round;stroke-linejoin:round;stroke-dasharray:none;stroke-opacity:1"
     d="M 718.41571,575.6956 V 475 L 803,575.6956 V 475"
     sodipodi:nodetypes="cccc" /><path
     id="path3-2"
     style="fill:none;fill-rule:evenodd;stroke:#ffffff;stroke-width:40;stroke-linecap:round;stroke-linejoin:round;stroke-dasharray:none;stroke-opacity:1"
     d="M 718.41571,575.6956 V 475 L 803,575.6956 V 475"
     sodipodi:nodetypes="cccc" /></g><g
   id="g6"
   transform="matrix(1.0522524,0,0,1.0489988,-63.598468,-20.43648)"
   style="stroke-width:0.951815"><path
     id="path6"
     style="fill:none;fill-rule:evenodd;stroke:#000000;stroke-width:52.3498;stroke-linecap:round;stroke-linejoin:round;stroke-dasharray:none;stroke-opacity:1"
     d="m 810.19563,417.08142 h -52.91425 m 85.72329,35.76893 c -19.61039,19.75464 -51.40512,19.75464 -71.01551,0 -19.61038,-19.75463 -19.61038,-51.78324 0,-71.53786 19.61039,-19.75465 51.40512,-19.75465 71.01551,0"
     sodipodi:nodetypes="cccssc" /><path
     id="path6-9"
     style="fill:none;fill-rule:evenodd;stroke:#ffffff;stroke-width:33.3135;stroke-linecap:round;stroke-linejoin:round;stroke-dasharray:none;stroke-opacity:1"
     d="m 810.19563,417.08142 h -52.91425 m 85.72329,35.76893 c -19.61039,19.75464 -51.40512,19.75464 -71.01551,0 -19.61038,-19.75463 -19.61038,-51.78324 0,-71.53786 19.61039,-19.75465 51.40512,-19.75465 71.01551,0"
     sodipodi:nodetypes="cccssc" /></g><g
   id="g7"><path
     style="fill:none;stroke:#000000;stroke-width:120;stroke-linecap:round;stroke-linejoin:round;stroke-dasharray:none;stroke-opacity:1"
     id="path7-8"
     sodipodi:type="arc"
     sodipodi:cx="408.40549"
     sodipodi:cy="418.1958"
     sodipodi:rx="231.32401"
     sodipodi:ry="231.32399"
     sodipodi:start="0.78539816"
     sodipodi:end="5.4977871"
     sodipodi:arc-type="arc"
     d="m 571.97626,581.76656 a 231.32401,231.32399 0 0 1 -327.14154,10e-6 231.32401,231.32399 0 0 1 -1e-5,-327.14153 231.32401,231.32399 0 0 1 327.14154,-1e-5"
     sodipodi:open="true" /><path
     style="fill:none;stroke:#ffffff;stroke-width:80;stroke-linecap:round;stroke-linejoin:round;stroke-dasharray:none;stroke-opacity:1"
     id="path7"
     sodipodi:type="arc"
     sodipodi:cx="408.40549"
     sodipodi:cy="418.1958"
     sodipodi:rx="231.32401"
     sodipodi:ry="231.32399"
     sodipodi:start="0.78539816"
     sodipodi:end="5.4977871"
     sodipodi:arc-type="arc"
     d="m 571.97626,581.76656 a 231.32401,231.32399 0 0 1 -327.14154,10e-6 231.32401,231.32399 0 0 1 -1e-5,-327.14153 231.32401,231.32399 0 0 1 327.14154,-1e-5"
     sodipodi:open="true" /></g></svg>
