<?xml version="1.0" encoding="UTF-8" standalone="no"?>
<svg
   width="816.43774"
   height="816.43774"
   viewBox="0 0 816.43774 816.43774"
   version="1.1"
   xml:space="preserve"
   id="SVGRoot"
   inkscape:version="1.4.2 (ebf0e940d0, 2025-05-08)"
   sodipodi:docname="power.svg"
   xmlns:inkscape="http://www.inkscape.org/namespaces/inkscape"
   xmlns:sodipodi="http://sodipodi.sourceforge.net/DTD/sodipodi-0.dtd"
   xmlns="http://www.w3.org/2000/svg"
   xmlns:svg="http://www.w3.org/2000/svg"><defs
   id="defs126" />
<sodipodi:namedview
   pagecolor="#a9a9a9"
   bordercolor="#292929"
   borderopacity="1"
   inkscape:showpageshadow="2"
   inkscape:pageopacity="0.0"
   inkscape:pagecheckerboard="0"
   inkscape:deskcolor="#232323"
   id="namedview1"
   inkscape:zoom="1.0533333"
   inkscape:cx="412.5"
   inkscape:cy="411.55063"
   inkscape:window-width="1915"
   inkscape:window-height="1130"
   inkscape:window-x="0"
   inkscape:window-y="711"
   inkscape:window-maximized="1"
   inkscape:current-layer="SVGRoot" />
<style
   type="text/css"
   id="style1">
g.prefab path {
  vector-effect:non-scaling-stroke;
  -inkscape-stroke:hairline;
  fill: none;
  fill-opacity: 1;
  stroke-opacity: 1;
  stroke: #00349c;
}
</style>

<circle
   style="fill:#c8c800;stroke:#000000;stroke-width:20;stroke-linecap:round;stroke-linejoin:round;stroke-dasharray:none;fill-opacity:1"
   id="path126"
   cx="408.21887"
   cy="408.21887"
   r="406.3291" /><g
   id="g129"><path
     id="path127"
     style="baseline-shift:baseline;display:inline;overflow:visible;opacity:1;vector-effect:none;stroke-linecap:round;stroke-linejoin:round;enable-background:accumulate;stop-color:#000000;stop-opacity:1"
     sodipodi:type="inkscape:offset"
     inkscape:radius="73.333725"
     inkscape:original="M 572.00977 234.42578 A 10 10 0 0 0 564.93945 237.35547 A 10 10 0 0 0 564.93945 251.49805 C 628.34739 314.90597 647.30049 410.1887 612.98438 493.03516 C 578.66826 575.88162 497.89111 629.85547 408.21875 629.85547 C 318.5464 629.85547 237.76926 575.88161 203.45312 493.03516 C 169.137 410.1887 188.09012 314.90598 251.49805 251.49805 A 10 10 0 0 0 251.49805 237.35547 A 10 10 0 0 0 244.42773 234.42773 A 10 10 0 0 0 237.35547 237.35547 C 168.26819 306.44275 147.5868 410.42258 184.97656 500.68945 C 222.36633 590.95632 310.51459 649.85547 408.21875 649.85547 C 505.92292 649.85547 594.07313 590.95633 631.46289 500.68945 C 668.85265 410.42258 648.16931 306.44274 579.08203 237.35547 A 10 10 0 0 0 572.00977 234.42578 z "
     d="m 571.99805,161.0918 c -21.81275,0.003 -43.48824,8.98423 -58.91211,24.4082 -0.001,0.001 -9.6e-4,0.003 -0.002,0.004 -9.9e-4,9.9e-4 -0.003,9.6e-4 -0.004,0.002 -30.84982,30.85502 -30.84788,86.99585 0.006,117.84766 h -0.002 c 42.60057,42.60055 55.20363,105.957 32.14844,161.61718 -23.0552,55.6602 -76.76772,91.55078 -137.01367,91.55078 -60.24593,0 -113.95845,-35.89057 -137.01367,-91.55078 -23.05519,-55.66017 -10.45214,-119.01661 32.14844,-161.61718 h -0.002 c 30.85571,-30.85377 30.85571,-86.99976 0,-117.85352 a 73.341058,73.341058 0 0 0 -0.008,-0.008 c -15.42461,-15.41941 -37.10018,-24.39673 -58.91016,-24.39844 -21.8147,-0.002 -43.49586,8.97568 -58.92382,24.39844 a 73.341058,73.341058 0 0 0 -0.01,0.008 c -89.92769,89.92769 -116.943437,225.75884 -68.27539,343.25391 48.66809,117.49513 163.81806,194.43554 290.99414,194.43554 127.17608,0 242.32767,-76.93956 290.99609,-194.43554 48.6675,-117.49375 21.64982,-253.32082 -68.27343,-343.24805 -15.42806,-15.43136 -37.11465,-24.41501 -58.93555,-24.41406 a 73.341058,73.341058 0 0 0 -0.008,0 z" /><path
     id="path127-1"
     style="baseline-shift:baseline;display:inline;overflow:visible;vector-effect:none;fill:#ffffff;fill-opacity:1;stroke-linecap:round;stroke-linejoin:round;enable-background:accumulate;stop-color:#000000"
     sodipodi:type="inkscape:offset"
     inkscape:radius="49.565842"
     inkscape:original="M 572.00977 234.42578 A 10 10 0 0 0 564.93945 237.35547 A 10 10 0 0 0 564.93945 251.49805 C 628.34739 314.90597 647.30049 410.1887 612.98438 493.03516 C 578.66826 575.88162 497.89111 629.85547 408.21875 629.85547 C 318.5464 629.85547 237.76926 575.88161 203.45312 493.03516 C 169.137 410.1887 188.09012 314.90598 251.49805 251.49805 A 10 10 0 0 0 251.49805 237.35547 A 10 10 0 0 0 244.42773 234.42773 A 10 10 0 0 0 237.35547 237.35547 C 168.26819 306.44275 147.5868 410.42258 184.97656 500.68945 C 222.36633 590.95632 310.51459 649.85547 408.21875 649.85547 C 505.92292 649.85547 594.07313 590.95633 631.46289 500.68945 C 668.85265 410.42258 648.16931 306.44274 579.08203 237.35547 A 10 10 0 0 0 572.00977 234.42578 z "
     d="m 572.00195,184.85937 c -15.59111,0.002 -31.08464,6.42288 -42.10937,17.44727 -22.05525,22.05386 -22.05525,62.18637 0,84.24023 h -0.002 c 49.34436,49.34435 64.00571,123.04813 37.30079,187.51954 -26.70493,64.47142 -89.18944,106.22265 -158.97266,106.22265 -69.7832,0 -132.26771,-41.75123 -158.97266,-106.22265 C 222.54117,409.595 237.20252,335.89123 286.54687,286.54687 h -0.002 c 22.05525,-22.05386 22.05525,-62.18637 0,-84.24023 a 49.570798,49.570798 0 0 0 -0.004,-0.006 c -11.02373,-11.02001 -26.51434,-17.4364 -42.10157,-17.43945 h -0.0137 c -15.59108,3e-5 -31.08683,6.41671 -42.11328,17.43945 a 49.570798,49.570798 0 0 0 -0.006,0.006 c -83.17319,83.17319 -108.135735,208.68131 -63.12305,317.35156 45.01273,108.6703 151.4111,179.76367 269.03516,179.76367 117.62407,0 224.02417,-71.09279 269.03711,-179.76367 45.01221,-108.6691 20.04863,-234.17477 -63.12109,-317.34765 l -0.002,-0.002 c -11.02764,-11.02893 -26.52863,-17.44989 -42.125,-17.44922 a 49.570798,49.570798 0 0 0 -0.006,0 z" /></g><g
   id="g130"><path
     id="path129"
     style="baseline-shift:baseline;display:inline;overflow:visible;opacity:1;vector-effect:none;fill-rule:evenodd;stroke-linecap:round;enable-background:accumulate;stop-color:#000000;stop-opacity:1"
     sodipodi:type="inkscape:offset"
     inkscape:radius="47.468353"
     inkscape:original="M 408.22852 188.41797 A 10 10 0 0 0 398.22852 198.41797 C 398.22852 198.41797 398.21875 387.33878 398.21875 408.21875 A 10 10 0 0 0 408.21875 418.21875 A 10 10 0 0 0 418.21875 408.21875 C 418.21875 387.34452 418.22852 198.41797 418.22852 198.41797 A 10 10 0 0 0 408.22852 188.41797 z "
     d="m 408.22852,140.94922 c -30.09036,0 -57.46875,27.37839 -57.46875,57.46875 0,0.004 -0.01,188.9062 -0.01,209.80078 0,30.09036 27.37839,57.46875 57.46875,57.46875 30.09036,0 57.46875,-27.37839 57.46875,-57.46875 0,-20.85942 0.01,-209.79883 0.01,-209.79883 a 47.4731,47.4731 0 0 0 0,-0.002 c 0,-30.09036 -27.37839,-57.46875 -57.46875,-57.46875 z" /><path
     id="path129-0"
     style="baseline-shift:baseline;display:inline;overflow:visible;vector-effect:none;fill:#ffffff;fill-opacity:1;fill-rule:evenodd;stroke:none;stroke-linecap:round;stroke-opacity:1;enable-background:accumulate;stop-color:#000000"
     sodipodi:type="inkscape:offset"
     inkscape:radius="24.683939"
     inkscape:original="M 408.22852 188.41797 A 10 10 0 0 0 398.22852 198.41797 C 398.22852 198.41797 398.21875 387.33878 398.21875 408.21875 A 10 10 0 0 0 408.21875 418.21875 A 10 10 0 0 0 418.21875 408.21875 C 418.21875 387.34452 418.22852 198.41797 418.22852 198.41797 A 10 10 0 0 0 408.22852 188.41797 z "
     d="m 408.22852,163.73437 c -18.16047,0 -34.6836,16.52313 -34.6836,34.6836 0,0.004 -0.01,188.9133 -0.01,209.80078 0,18.16047 16.52312,34.68359 34.68359,34.68359 18.16047,0 34.68359,-16.52312 34.68359,-34.68359 0,-20.86653 0.01,-209.79883 0.01,-209.79883 a 24.686407,24.686407 0 0 0 0,-0.002 c 0,-18.16047 -16.52313,-34.6836 -34.68359,-34.6836 z" /></g></svg>
