<?xml version="1.0" encoding="UTF-8" standalone="no"?>
<svg
   width="832"
   height="832"
   viewBox="0 0 832 832"
   version="1.1"
   xml:space="preserve"
   id="SVGRoot"
   inkscape:version="1.4.2 (ebf0e940d0, 2025-05-08)"
   sodipodi:docname="power.svg"
   xmlns:inkscape="http://www.inkscape.org/namespaces/inkscape"
   xmlns:sodipodi="http://sodipodi.sourceforge.net/DTD/sodipodi-0.dtd"
   xmlns="http://www.w3.org/2000/svg"
   xmlns:svg="http://www.w3.org/2000/svg"><defs
   id="defs126" />
<sodipodi:namedview
   pagecolor="#a9a9a9"
   bordercolor="#292929"
   borderopacity="1"
   inkscape:showpageshadow="2"
   inkscape:pageopacity="0.0"
   inkscape:pagecheckerboard="0"
   inkscape:deskcolor="#232323"
   id="namedview1"
   inkscape:zoom="1.0533333"
   inkscape:cx="420.56963"
   inkscape:cy="420.09495"
   inkscape:window-width="1916"
   inkscape:window-height="1244"
   inkscape:window-x="0"
   inkscape:window-y="585"
   inkscape:window-maximized="1"
   inkscape:current-layer="g130" />
<style
   type="text/css"
   id="style1">
g.prefab path {
  vector-effect:non-scaling-stroke;
  -inkscape-stroke:hairline;
  fill: none;
  fill-opacity: 1;
  stroke-opacity: 1;
  stroke: #00349c;
}
</style>

<circle
   style="fill:#c8c800;fill-opacity:1;stroke:#000000;stroke-width:20;stroke-linecap:round;stroke-linejoin:round;stroke-dasharray:none"
   id="path126"
   cx="416.3291"
   cy="416.3291"
   r="406.3291" /><g
   id="g129"
   transform="translate(8.1102295,8.1102295)"><path
     id="path127"
     style="baseline-shift:baseline;display:inline;overflow:visible;opacity:1;vector-effect:none;stroke-linecap:round;stroke-linejoin:round;enable-background:accumulate;stop-color:#000000;stop-opacity:1"
     sodipodi:type="inkscape:offset"
     inkscape:radius="53.405506"
     inkscape:original="M 572.00977 234.42578 A 10 10 0 0 0 564.93945 237.35547 A 10 10 0 0 0 564.93945 251.49805 C 628.34739 314.90597 647.30049 410.1887 612.98438 493.03516 C 578.66826 575.88162 497.89111 629.85547 408.21875 629.85547 C 318.5464 629.85547 237.76926 575.88161 203.45312 493.03516 C 169.137 410.1887 188.09012 314.90598 251.49805 251.49805 A 10 10 0 0 0 251.49805 237.35547 A 10 10 0 0 0 244.42773 234.42773 A 10 10 0 0 0 237.35547 237.35547 C 168.26819 306.44275 147.5868 410.42258 184.97656 500.68945 C 222.36633 590.95632 310.51459 649.85547 408.21875 649.85547 C 505.92292 649.85547 594.07313 590.95633 631.46289 500.68945 C 668.85265 410.42258 648.16931 306.44274 579.08203 237.35547 A 10 10 0 0 0 572.00977 234.42578 z "
     d="m 572.00195,181.01953 c -16.59628,0.002 -33.0888,6.83704 -44.82422,18.57227 -23.47694,23.47547 -23.47694,66.19445 0,89.66992 h -0.002 c 48.25491,48.25489 62.58406,120.28797 36.46875,183.33594 -26.11532,63.04798 -87.18329,103.85156 -155.42578,103.85156 -68.24247,0 -129.31044,-40.80358 -155.42578,-103.85156 -26.11532,-63.04797 -11.78616,-135.08103 36.46875,-183.33594 h -0.002 c 23.47694,-23.47547 23.47694,-66.19445 0,-89.66992 a 53.410847,53.410847 0 0 0 -0.004,-0.006 c -11.73408,-11.73012 -28.22283,-18.56091 -44.81445,-18.56446 h -0.0156 c -16.59573,3.3e-4 -33.09115,6.83144 -44.82812,18.56446 a 53.410847,53.410847 0 0 0 -0.006,0.006 c -84.26437,84.26437 -109.558287,211.43927 -63.95508,321.53515 45.60324,110.09594 153.41485,182.13477 272.58203,182.13477 119.16718,0 226.9805,-72.03821 272.58398,-182.13477 45.60275,-110.09478 20.30776,-237.26721 -63.95312,-321.53125 l -0.002,-0.002 C 605.10915,187.8538 588.6096,181.01881 572.00781,181.01953 a 53.410847,53.410847 0 0 0 -0.006,0 z" /><path
     id="path127-1"
     style="baseline-shift:baseline;display:inline;overflow:visible;vector-effect:none;fill:#ffffff;fill-opacity:1;stroke-linecap:round;stroke-linejoin:round;enable-background:accumulate;stop-color:#000000"
     sodipodi:type="inkscape:offset"
     inkscape:radius="31.748241"
     inkscape:original="M 572.00977 234.42578 A 10 10 0 0 0 564.93945 237.35547 A 10 10 0 0 0 564.93945 251.49805 C 628.34739 314.90597 647.30049 410.1887 612.98438 493.03516 C 578.66826 575.88162 497.89111 629.85547 408.21875 629.85547 C 318.5464 629.85547 237.76926 575.88161 203.45312 493.03516 C 169.137 410.1887 188.09012 314.90598 251.49805 251.49805 A 10 10 0 0 0 251.49805 237.35547 A 10 10 0 0 0 244.42773 234.42773 A 10 10 0 0 0 237.35547 237.35547 C 168.26819 306.44275 147.5868 410.42258 184.97656 500.68945 C 222.36633 590.95632 310.51459 649.85547 408.21875 649.85547 C 505.92292 649.85547 594.07313 590.95633 631.46289 500.68945 C 668.85265 410.42258 648.16931 306.44274 579.08203 237.35547 A 10 10 0 0 0 572.00977 234.42578 z "
     d="m 572.00586,202.67773 c -10.92814,0.002 -21.78856,4.50087 -29.51563,12.22852 -15.45798,15.45701 -15.45798,43.584 0,59.04102 54.39984,54.39982 70.60305,135.86074 41.16211,206.9375 -29.44095,71.07675 -98.50075,117.22265 -175.43359,117.22265 -76.93282,0 -145.99262,-46.1459 -175.43359,-117.22265 -29.44095,-71.07675 -13.23773,-152.53767 41.16211,-206.9375 15.45798,-15.45702 15.45798,-43.58401 0,-59.04102 a 31.751416,31.751416 0 0 0 -0.004,-0.004 c -7.72623,-7.72362 -18.58316,-12.22047 -29.50781,-12.22265 h -0.01 c -10.92735,6e-5 -21.78749,4.49712 -29.51562,12.22265 a 31.751416,31.751416 0 0 0 -0.004,0.004 c -78.10968,78.10968 -101.53417,195.87887 -59.26172,297.93359 42.27247,102.05476 142.11083,168.76368 252.57422,168.76368 110.46339,0 210.30356,-66.70855 252.57617,-168.76368 42.27225,-102.05423 18.84619,-219.82216 -59.26172,-297.93164 -7.72909,-7.73075 -18.59363,-12.23094 -29.52539,-12.23047 a 31.751416,31.751416 0 0 0 -0.002,0 z" /></g><g
   id="g130"
   transform="translate(8.1102295,8.1102295)"><path
     id="path129"
     style="baseline-shift:baseline;display:inline;overflow:visible;opacity:1;vector-effect:none;fill-rule:evenodd;stroke-linecap:round;enable-background:accumulate;stop-color:#000000;stop-opacity:1"
     sodipodi:type="inkscape:offset"
     inkscape:radius="47.468353"
     inkscape:original="M 408.22852 188.41797 A 10 10 0 0 0 398.22852 198.41797 C 398.22852 198.41797 398.21875 387.33878 398.21875 408.21875 A 10 10 0 0 0 408.21875 418.21875 A 10 10 0 0 0 418.21875 408.21875 C 418.21875 387.34452 418.22852 198.41797 418.22852 198.41797 A 10 10 0 0 0 408.22852 188.41797 z "
     d="m 408.22852,140.94922 c -30.09036,0 -57.46875,27.37839 -57.46875,57.46875 0,0.004 -0.01,188.9062 -0.01,209.80078 0,30.09036 27.37839,57.46875 57.46875,57.46875 30.09036,0 57.46875,-27.37839 57.46875,-57.46875 0,-20.85942 0.01,-209.79883 0.01,-209.79883 a 47.4731,47.4731 0 0 0 0,-0.002 c 0,-30.09036 -27.37839,-57.46875 -57.46875,-57.46875 z" /><path
     id="path129-0"
     style="baseline-shift:baseline;display:inline;overflow:visible;vector-effect:none;fill:#ffffff;fill-opacity:1;fill-rule:evenodd;stroke:none;stroke-linecap:round;stroke-opacity:1;enable-background:accumulate;stop-color:#000000"
     sodipodi:type="inkscape:offset"
     inkscape:radius="24.683939"
     inkscape:original="M 408.22852 188.41797 A 10 10 0 0 0 398.22852 198.41797 C 398.22852 198.41797 398.21875 387.33878 398.21875 408.21875 A 10 10 0 0 0 408.21875 418.21875 A 10 10 0 0 0 418.21875 408.21875 C 418.21875 387.34452 418.22852 198.41797 418.22852 198.41797 A 10 10 0 0 0 408.22852 188.41797 z "
     d="m 408.22852,163.73437 c -18.16047,0 -34.6836,16.52313 -34.6836,34.6836 0,0.004 -0.01,188.9133 -0.01,209.80078 0,18.16047 16.52312,34.68359 34.68359,34.68359 18.16047,0 34.68359,-16.52312 34.68359,-34.68359 0,-20.86653 0.01,-209.79883 0.01,-209.79883 a 24.686407,24.686407 0 0 0 0,-0.002 c 0,-18.16047 -16.52313,-34.6836 -34.68359,-34.6836 z" /></g></svg>
